<?xml version="1.0" encoding="utf-8"?>
<svg xmlns="http://www.w3.org/2000/svg" width="100" height="60" viewBox="0 0 100 60">
  <g fill="none">
    <ellipse cx="50" cy="30" fill="#FEFEFE" rx="48" ry="28"/>
    <path fill="#373435" d="M50.7 0h.3-.3zM39.4 55.7l.7-.4c-4.3-2-8-5.5-10.6-9.8a71 71 0 0 0-7 2.1 39.5 39.5 0 0 0 17 8.1zm3-1.4c2-.7 4.2-1.1 6.5-1.2V43c-6 0-12 .7-17.3 1.9 2.6 4.2 6.4 7.5 10.8 9.3zm8.6-1.2c2.4 0 4.6.5 6.6 1.2 4.4-1.8 8.2-5 10.8-9.3A86.5 86.5 0 0 0 51 43v10zm9 2.3l.6.3a39.7 39.7 0 0 0 17-8.1 71 71 0 0 0-7.1-2.1 25.8 25.8 0 0 1-10.6 9.9zm.6-51.1l-.7.3c4.3 2.2 8 5.6 10.6 10a70.7 70.7 0 0 0 7-2.2 39.9 39.9 0 0 0-17-8.1zm-3 1.4c-2 .7-4.2 1.1-6.6 1.2v10c6.1 0 12-.7 17.4-1.9a23.3 23.3 0 0 0-10.8-9.3zm-8.7 1.2a22 22 0 0 1-6.5-1.2c-4.4 1.8-8.1 5-10.8 9.3a86.3 86.3 0 0 0 17.3 2V7zm-8.8-2.2l-.7-.4a39.6 39.6 0 0 0-17 8 70.7 70.7 0 0 0 7.1 2.2c2.6-4.3 6.3-7.7 10.6-9.8zM83.5 50a49.5 49.5 0 0 0-3.9-1.7A40.2 40.2 0 0 1 64 56.8c7.4-1.3 14-3.6 19.5-6.7zm-63.1-1.7a49.6 49.6 0 0 0-3.9 1.7c5.4 3 12 5.4 19.5 6.7a40.2 40.2 0 0 1-15.6-8.4zm-5.9.5a51.9 51.9 0 0 1 4.3-2c-4.4-4.5-7-10-7.3-15.9H2c.5 7 5.1 13.2 12.5 18zm6.3-2.8c2.4-1 5-1.8 7.7-2.4-1.9-3.8-3-8.1-3.2-12.7H13.6c.3 5.7 2.9 10.8 7.2 15.1zm9.7-3c5.7-1.2 12-2 18.4-2V31H27.4c.1 4.3 1.3 8.5 3.1 12zm20.5-2c6.5 0 12.8.7 18.5 2 1.8-3.5 3-7.7 3.1-12H51v10zm20.5 2.6c2.7.6 5.3 1.5 7.7 2.4 4.3-4.3 7-9.4 7.2-15H74.7c-.2 4.5-1.3 8.8-3.2 12.6zm9.7 3.2a51.9 51.9 0 0 1 4.3 2c7.4-4.7 12-11 12.5-17.9h-9.5c-.3 6-3 11.4-7.3 15.9zM2 29h9.5c.3-5.9 3-11.3 7.3-15.8a55 55 0 0 1-4.2-2C7 15.8 2.5 22 2 29zm11.6 0h11.7a30 30 0 0 1 3.2-12.6 70.2 70.2 0 0 1-7.7-2.4c-4.3 4.2-7 9.4-7.2 15zm13.8 0h21.5V19c-6.4 0-12.7-.8-18.4-2.1-1.8 3.6-3 7.7-3.1 12.2zM51 29h21.6c-.1-4.4-1.3-8.5-3.1-12.1-5.7 1.3-12 2-18.5 2.1v10zm23.7 0h11.7c-.3-5.6-3-10.8-7.2-15a70.2 70.2 0 0 1-7.7 2.4c1.9 3.8 3 8 3.2 12.7zm13.8 0H98c-.5-6.8-5.1-13-12.6-17.8a55 55 0 0 1-4.2 2c4.4 4.5 7 10 7.3 15.9zM50 0c27.6 0 50 13.4 50 30S77.6 60 50 60 0 46.6 0 30 22.4 0 50 0zm14 3.2a40.4 40.4 0 0 1 15.6 8.4 60.6 60.6 0 0 0 3.8-1.7c-5.4-3-12-5.4-19.4-6.7zm-43.6 8.4C24.5 7.9 29.9 5 36 3.2c-7.4 1.3-14 3.6-19.4 6.7l3.8 1.7zM51 60h-.3.3zm-1.7 0H49h.3zm-.6 0h-.3.3zm-6.7-.3l-.2-.1.2.1z"/>
    <path fill="#FEFEFE" d="M39.8 57.4c2.6-1.9 6.2-3 10.2-3 4 0 7.6 1.1 10.2 3a84 84 0 0 1-20.4 0zM60.2 2.6c-2.6 1.9-6.2 3-10.2 3-4 0-7.6-1.1-10.2-3a83.8 83.8 0 0 1 20.4 0zm-.7 18.6L72 5.2l9.3 6.7-4.6 8L79 47.1l-5.6 4.4-24 1.6 11-14.2z"/>
    <path fill="#FEFEFE" d="M16.6 13.9l9.3-7.2 13.3 13v19.6l.8 1 1.2-1.4V19l11-6.5 4.7 7.3v20L42.2 52.6l-13.6-.3-5-3.5V22.1z"/>
    <path fill="#364C8B" d="M25.5 21.4l-6.3-7.3 6.5-5 11.7 11.4V40l2.5 3 3.1-3.4V20.1l8.6-5.2 3.4 5.5v18.5L41.6 51l-12.3-.4-3.8-2.6z"/>
    <path fill="#DD353A" d="M61.3 21.8l11-14 6.6 4.7-4 7L77 46.2l-4.3 3.6L53.2 51 62 39.5z"/>
  </g>
</svg>